# xmcd
#
# Track frame offsets:
#	150
#	15530
#	33385
#	47940
#	64296
#	79151
#	94006
#	109312
#	124167
#	140223
#	155303
#	170383
#	183063
#	199268
#	213147
#	230778
#
# Disc length: 3222 seconds
#
# Revision: 1
# Processed by: cddbd v1.5.2PL0 Copyright (c) Steve Scherf et al.
# Submitted via: audiograbber 1.83.01
#
DISCID=e00c9410
DTITLE=Various Artist - CDX 051
DYEAR=1993
DGENRE=Country
TTITLE0=Dwight Yoakam - Ain't That Lonely Yet
TTITLE1=Charlie Daniels - America, I Believe In You
TTITLE2=Mark Collie - Born To Love You
TTITLE3=Hank Williams Jr. - Everything Comes Down To Money And Love
TTITLE4=Suzy Bogguss - Heartache
TTITLE5=Toy Caldwell - I Hear The South Calling Me
TTITLE6=Gene Watson - In Other Words
TTITLE7=Ricky van Shelton - Just As I Am
TTITLE8=Dude Mowery - Maybe You Were The One
TTITLE9=Kenny Rogers - Missing You
TTITLE10=Diamond Rio - Oh Me, Oh My, Sweet Baby
TTITLE11=George Jones - Wrong Is What I Do Best
TTITLE12=Toby Keith - Should've Been A Cowboy
TTITLE13=Shania Twain - What Made You Say That
TTITLE14=John Brannon - Moonlight And Magnolias
TTITLE15=Ralph Stanley - The Water Lilly
EXTD=
EXTT0=
EXTT1=
EXTT2=
EXTT3=
EXTT4=
EXTT5=
EXTT6=
EXTT7=
EXTT8=
EXTT9=
EXTT10=
EXTT11=
EXTT12=
EXTT13=
EXTT14=
EXTT15=
PLAYORDER=
